<?xml version="1.0" encoding="UTF-8" standalone="no"?>
<!-- Created with Inkscape (http://www.inkscape.org/) -->

<svg
   width="8.7834845mm"
   height="8.7898893mm"
   viewBox="0 0 8.7834845 8.7898893"
   version="1.1"
   id="svg1417"
   inkscape:version="1.1 (c68e22c387, 2021-05-23)"
   xmlns:inkscape="http://www.inkscape.org/namespaces/inkscape"
   xmlns:sodipodi="http://sodipodi.sourceforge.net/DTD/sodipodi-0.dtd"
   xmlns:xlink="http://www.w3.org/1999/xlink"
   xmlns="http://www.w3.org/2000/svg"
   xmlns:svg="http://www.w3.org/2000/svg">
  <sodipodi:namedview
     id="namedview1419"
     pagecolor="#ffffff"
     bordercolor="#666666"
     borderopacity="1.0"
     inkscape:pageshadow="2"
     inkscape:pageopacity="0.0"
     inkscape:pagecheckerboard="0"
     inkscape:document-units="mm"
     showgrid="false"
     fit-margin-top="0"
     fit-margin-left="0"
     fit-margin-right="0"
     fit-margin-bottom="0"
     inkscape:zoom="6.1148148"
     inkscape:cx="-14.636584"
     inkscape:cy="-1.7171411"
     inkscape:window-width="1920"
     inkscape:window-height="1017"
     inkscape:window-x="1912"
     inkscape:window-y="-8"
     inkscape:window-maximized="1"
     inkscape:current-layer="layer1" />
  <defs
     id="defs1414">
    <linearGradient
       inkscape:collect="always"
       xlink:href="#linearGradient5554"
       id="linearGradient1192"
       gradientUnits="userSpaceOnUse"
       x1="15.992425"
       y1="1017.5504"
       x2="16.741737"
       y2="1051.6726"
       gradientTransform="matrix(0.98711542,0,0,0.98711542,-306.67422,-322.86086)" />
    <linearGradient
       inkscape:collect="always"
       id="linearGradient5554">
      <stop
         style="stop-color:#0096fd;stop-opacity:1"
         offset="0"
         id="stop5556" />
      <stop
         style="stop-color:#007fd8;stop-opacity:1"
         offset="1"
         id="stop5558" />
    </linearGradient>
  </defs>
  <g
     inkscape:label="Ebene 1"
     inkscape:groupmode="layer"
     id="layer1"
     transform="translate(-97.723643,-97.374286)">
    <g
       id="g1373"
       inkscape:export-filename="K:\PHP-Projekte\Wordpress Plugins\probelix-blowball\assets\icon-128x128.png"
       inkscape:export-xdpi="370.17001"
       inkscape:export-ydpi="370.17001"
       transform="matrix(0.26458333,0,0,0.26458333,178.81958,-83.267318)">
      <rect
         width="33.195591"
         height="33.197422"
         x="-306.50433"
         y="682.73993"
         id="rect7848-9-11-6-4"
         style="fill:url(#linearGradient1192);fill-opacity:1;stroke:none;stroke-width:0.987115" />
      <g
         transform="matrix(0.81711404,0,0,0.81711404,-1570.137,310.30224)"
         id="g10846-4-2-1-8-27-6-4">
        <g
           transform="translate(0.21605214,-0.01511676)"
           id="g9818-1-9-8-3-6-5-9">
          <path
             d="m 1568.2013,471.97191 c -1.0929,-0.44164 -0.5423,1.08065 -1.7214,1.09076 -1.1788,0.0102 -0.6522,-1.4996 -1.7373,-1.03904 -1.0851,0.46052 0.3957,1.14235 -0.4306,1.9831 -0.8263,0.84075 -1.5272,-0.64149 -1.9688,0.4515 -0.4416,1.09299 1.0805,0.54276 1.0907,1.72155 0.01,1.17876 -1.5285,0.64042 -1.0679,1.72556 0.4605,1.0851 1.1423,-0.3957 1.9831,0.43059 0.8406,0.82625 -0.6113,1.53936 0.4804,1.98048 1.093,0.44167 0.5136,-1.09227 1.6926,-1.10241 1.1788,-0.0102 0.6694,1.54026 1.7545,1.07974 1.0851,-0.46056 -0.3957,-1.14239 0.4306,-1.98314 0.8262,-0.84075 1.539,0.61219 1.9804,-0.48051 0.4417,-1.09295 -1.0921,-0.5138 -1.1023,-1.69253 -0.01,-1.17877 1.5285,-0.64043 1.068,-1.72553 -0.4606,-1.08514 -1.1596,0.355 -2.0004,-0.47129 -0.8408,-0.82629 0.6418,-1.527 -0.4516,-1.96883 z m -0.9951,2.46279 c 0.9505,0.38409 1.4028,1.44978 1.0187,2.40024 -0.3841,0.95047 -1.4614,1.43175 -2.412,1.04766 -0.9504,-0.38406 -1.42,-1.49044 -1.0359,-2.44091 0.384,-0.95047 1.4787,-1.39105 2.4292,-1.00699 z"
             id="path9646-2-4-9-8-1-6-2"
             style="fill:#ffffff;fill-opacity:1;stroke:none"
             inkscape:connector-curvature="0" />
          <g
             transform="translate(0,0.16814262)"
             id="g9727-0-19-2-6-4-9-5">
            <path
               d="m 299.25,1105.8622 a 3.25,3.25 0 1 1 -6.5,0 3.25,3.25 0 1 1 6.5,0 z"
               transform="matrix(0.42631501,0,0,0.42631501,1440.3096,-1.7645186)"
               id="path44574-44-4-7-8-0-69-7-9-23-0-6"
               style="fill:#ffffff;fill-opacity:1;stroke:none"
               inkscape:connector-curvature="0" />
            <path
               d="m 299.25,1105.8622 a 3.25,3.25 0 1 1 -6.5,0 3.25,3.25 0 1 1 6.5,0 z"
               transform="matrix(0.42631501,0,0,0.42631501,1440.2483,10.854033)"
               id="path44574-44-4-7-8-1-1-8-9-86-2-0-2"
               style="fill:#ffffff;fill-opacity:1;stroke:none"
               inkscape:connector-curvature="0" />
          </g>
          <g
             transform="rotate(90,1566.3673,476.0883)"
             id="g9727-3-4-2-5-6-21-9-7">
            <path
               d="m 299.25,1105.8622 a 3.25,3.25 0 1 1 -6.5,0 3.25,3.25 0 1 1 6.5,0 z"
               transform="matrix(0.42631501,0,0,0.42631501,1440.3096,-1.7645186)"
               id="path44574-44-4-7-8-8-6-5-4-23-6-9-2"
               style="fill:#ffffff;fill-opacity:1;stroke:none"
               inkscape:connector-curvature="0" />
            <path
               d="m 299.25,1105.8622 a 3.25,3.25 0 1 1 -6.5,0 3.25,3.25 0 1 1 6.5,0 z"
               transform="matrix(0.42631501,0,0,0.42631501,1440.2483,10.854033)"
               id="path44574-44-4-7-8-1-9-0-5-3-8-85-9-8"
               style="fill:#ffffff;fill-opacity:1;stroke:none"
               inkscape:connector-curvature="0" />
          </g>
          <g
             transform="rotate(45,1566.3158,476.15029)"
             id="g9727-3-3-7-4-1-2-7-5-5">
            <path
               d="m 299.25,1105.8622 a 3.25,3.25 0 1 1 -6.5,0 3.25,3.25 0 1 1 6.5,0 z"
               transform="matrix(0.42631501,0,0,0.42631501,1440.3096,-1.7645186)"
               id="path44574-44-4-7-8-8-4-1-91-2-6-6-5-3"
               style="fill:#ffffff;fill-opacity:1;stroke:none"
               inkscape:connector-curvature="0" />
            <path
               d="m 299.25,1105.8622 a 3.25,3.25 0 1 1 -6.5,0 3.25,3.25 0 1 1 6.5,0 z"
               transform="matrix(0.42631501,0,0,0.42631501,1440.2483,10.854033)"
               id="path44574-44-4-7-8-1-9-4-7-2-3-2-1-6-1"
               style="fill:#ffffff;fill-opacity:1;stroke:none"
               inkscape:connector-curvature="0" />
          </g>
          <g
             transform="matrix(-0.70710678,0.70710678,0.70710678,0.70710678,2337.5909,-968.03359)"
             id="g9727-3-3-6-7-5-3-7-8-9-9">
            <path
               d="m 299.25,1105.8622 a 3.25,3.25 0 1 1 -6.5,0 3.25,3.25 0 1 1 6.5,0 z"
               transform="matrix(0.42631501,0,0,0.42631501,1440.3096,-1.7645186)"
               id="path44574-44-4-7-8-8-4-0-7-0-4-5-9-3-3"
               style="fill:#ffffff;fill-opacity:1;stroke:none"
               inkscape:connector-curvature="0" />
            <path
               d="m 299.25,1105.8622 a 3.25,3.25 0 1 1 -6.5,0 3.25,3.25 0 1 1 6.5,0 z"
               transform="matrix(0.42631501,0,0,0.42631501,1440.2483,10.854033)"
               id="path44574-44-4-7-8-1-9-4-6-7-8-1-7-2-5-2"
               style="fill:#ffffff;fill-opacity:1;stroke:none"
               inkscape:connector-curvature="0" />
          </g>
        </g>
        <g
           transform="translate(0.024995)"
           id="g10810-3-39-1-8-7-8-2">
          <path
             d="m 1558.25,476.48718 a 3.6875,3.6875 0 1 1 -7.375,0 3.6875,3.6875 0 1 1 7.375,0 z"
             transform="translate(-0.4375,-0.32864)"
             id="path9970-35-3-3-2-9-3-6"
             style="fill:#ffffff;fill-opacity:1;stroke:none"
             inkscape:connector-curvature="0" />
          <path
             d="m 1558.25,476.48718 a 3.6875,3.6875 0 1 1 -7.375,0 3.6875,3.6875 0 1 1 7.375,0 z"
             transform="translate(24.625005,-0.32864)"
             id="path9970-3-9-9-8-7-5-4-9"
             style="fill:#ffffff;fill-opacity:1;stroke:none"
             inkscape:connector-curvature="0" />
          <path
             d="m 1558.25,476.48718 a 3.6875,3.6875 0 1 1 -7.375,0 3.6875,3.6875 0 1 1 7.375,0 z"
             transform="translate(11.9,12.249998)"
             id="path9970-5-9-6-7-8-4-4-3"
             style="fill:#ffffff;fill-opacity:1;stroke:none"
             inkscape:connector-curvature="0" />
          <path
             d="m 1558.25,476.48718 a 3.6875,3.6875 0 1 1 -7.375,0 3.6875,3.6875 0 1 1 7.375,0 z"
             transform="translate(12.000005,-12.937502)"
             id="path9970-9-8-7-4-0-3-6-6"
             style="fill:#ffffff;fill-opacity:1;stroke:none"
             inkscape:connector-curvature="0" />
          <path
             d="m 1558.25,476.48718 a 3.6875,3.6875 0 1 1 -7.375,0 3.6875,3.6875 0 1 1 7.375,0 z"
             transform="translate(20.937505,-9.312502)"
             id="path9970-8-1-9-2-2-1-7-8"
             style="fill:#ffffff;fill-opacity:1;stroke:none"
             inkscape:connector-curvature="0" />
          <path
             d="m 1558.25,476.48718 a 3.6875,3.6875 0 1 1 -7.375,0 3.6875,3.6875 0 1 1 7.375,0 z"
             transform="translate(3.1875049,8.5624982)"
             id="path9970-4-8-9-7-0-23-8-5"
             style="fill:#ffffff;fill-opacity:1;stroke:none"
             inkscape:connector-curvature="0" />
          <path
             d="m 1558.25,476.48718 a 3.6875,3.6875 0 1 1 -7.375,0 3.6875,3.6875 0 1 1 7.375,0 z"
             transform="translate(3.2500049,-9.2500019)"
             id="path9970-0-2-76-7-8-3-1-3"
             style="fill:#ffffff;fill-opacity:1;stroke:none"
             inkscape:connector-curvature="0" />
          <path
             d="m 1558.25,476.48718 a 3.6875,3.6875 0 1 1 -7.375,0 3.6875,3.6875 0 1 1 7.375,0 z"
             transform="translate(20.812505,8.6249982)"
             id="path9970-7-6-9-9-9-4-5-5"
             style="fill:#ffffff;fill-opacity:1;stroke:none"
             inkscape:connector-curvature="0" />
        </g>
      </g>
      <path
         d="m -283.41068,705.84568 c 6.12074,4.34262 6.16661,9.2164 6.16661,9.2164"
         id="path3977-9-2-5-1-7-1-6-6-6-35-3-2-1-9-3"
         style="fill:none;stroke:#ffffff;stroke-width:1.76058;stroke-linecap:square;stroke-linejoin:miter;stroke-miterlimit:4;stroke-dasharray:none;stroke-opacity:1"
         inkscape:connector-curvature="0"
         sodipodi:nodetypes="cc" />
    </g>
  </g>
</svg>
